# xmcd
#
# Track frame offsets:
#	150
#	22721
#	42988
#	62605
#	84026
#	107798
#	127033
#	142185
#	164178
#	178603
#	192376
#	216638
#	235743
#	253977
#
# Disc length: 3844 seconds
#
# Revision: 1
# Processed by: cddbd v1.5.2PL0 Copyright (c) Steve Scherf et al.
# Submitted via: audiograbber 1.83.01
#
DISCID=cf0f020e
DTITLE=Ilse De Lange - Live - Disc 1
DYEAR=2007
DGENRE=Country
TTITLE0=Don't you let go of me
TTITLE1=Reach for the light
TTITLE2=The lonely one
TTITLE3=World of hurt
TTITLE4=Livin on love
TTITLE5=I love you
TTITLE6=Tapdancing on the highwire
TTITLE7=Flying blind
TTITLE8=Sister golden hair
TTITLE9=I'd be yours
TTITLE10=Ride the wind to me
TTITLE11=I will always love you
TTITLE12=The great escape
TTITLE13=I'm not so tough
EXTD=
EXTT0=
EXTT1=
EXTT2=
EXTT3=
EXTT4=
EXTT5=
EXTT6=
EXTT7=
EXTT8=
EXTT9=
EXTT10=
EXTT11=
EXTT12=
EXTT13=
PLAYORDER=
